PathFileType	4	(X/Y/Z)	/Users/itak/Documents/Research/Walk-IL/dataset/trc/00262_00009.trc
DataRate	CameraRate	NumFrames	NumMarkers	Units	OrigDataRate	OrigDataStartFrame	OrigNumFrames
100.000000	100.000000	4	53	mm	100.000000	209	418
Frame#	Time	RPSI			LPSI			L3			STRN			T10			C7			CLAV			RBAK			LBAK			LSHO			LUPA			LAEL			LAOL			LWTS			LWPS			LFRA			LIFD			LHPS			LHTS			RSHO			RUPA			RAEL			RAOL			RWTS			RWPS			RFRA			RIFD			RHTS			RHPS			RBHD			LFHD			RFHD			LBHD			LHIP			RHIP			RASI			LASI			LKNE			LTHI			LANK			LTIP			LTOE			LMT1			LMT5			LHEE			RKNE			RTHI			RANK			RTIP			RTOE			RMT1			RMT5			RHEE			
		X1	Y1	Z1	X2	Y2	Z2	X3	Y3	Z3	X4	Y4	Z4	X5	Y5	Z5	X6	Y6	Z6	X7	Y7	Z7	X8	Y8	Z8	X9	Y9	Z9	X10	Y10	Z10	X11	Y11	Z11	X12	Y12	Z12	X13	Y13	Z13	X14	Y14	Z14	X15	Y15	Z15	X16	Y16	Z16	X17	Y17	Z17	X18	Y18	Z18	X19	Y19	Z19	X20	Y20	Z20	X21	Y21	Z21	X22	Y22	Z22	X23	Y23	Z23	X24	Y24	Z24	X25	Y25	Z25	X26	Y26	Z26	X27	Y27	Z27	X28	Y28	Z28	X29	Y29	Z29	X30	Y30	Z30	X31	Y31	Z31	X32	Y32	Z32	X33	Y33	Z33	X34	Y34	Z34	X35	Y35	Z35	X36	Y36	Z36	X37	Y37	Z37	X38	Y38	Z38	X39	Y39	Z39	X40	Y40	Z40	X41	Y41	Z41	X42	Y42	Z42	X43	Y43	Z43	X44	Y44	Z44	X45	Y45	Z45	X46	Y46	Z46	X47	Y47	Z47	X48	Y48	Z48	X49	Y49	Z49	X50	Y50	Z50	X51	Y51	Z51	X52	Y52	Z52	X53	Y53	Z53	

210	2.09	-271.9149780273438	1005.976806640625	366.9303588867188	-378.5335083007812	1010.500854492188	310.4410095214844	-349.7172546386719	1093.4716796875	333.8485107421875	-232.6099700927734	1287.818969726562	114.956298828125	-352.0593566894531	1218.849609375	337.143310546875	-329.0086975097656	1482.942260742188	288.6092834472656	-243.4552612304688	1404.606323242188	141.4970703125	-303.2136840820312	1339.500732421875	384.1482543945312	-435.3074951171875	1445.409057617188	249.5839385986328	-439.2947998046875	1450.454467773438	144.9813995361328	-524.6378173828125	1332.52978515625	131.2781677246094	-544.8574829101562	1124.486938476562	105.9285583496094	-532.989501953125	1103.057739257812	190.9652099609375	-429.3391723632812	909.6846923828125	27.0736255645752	-508.2790832519531	892.1073608398438	2.654427766799927	-537.9697875976562	1021.989990234375	67.89106750488281	-422.5040588378906	719.25390625	-11.62882709503174	-489.7732543945312	807.9022827148438	-23.61750793457031	-422.2424621582031	817.4537353515625	-28.46407699584961	-154.6984558105469	1443.727783203125	322.5631103515625	-108.1165390014648	1378.200805664062	372.0278015136719	-76.39104461669922	1100.834594726562	411.6747741699219	-168.5525054931641	1091.533447265625	389.9246215820312	-33.32313537597656	878.4295654296875	284.5188903808594	-4.868885517120361	872.781982421875	363.1718444824219	-49.04255676269531	1033.20458984375	397.8888549804688	-42.91551971435547	689.8506469726562	300.1572570800781	0.1481407135725021	752.7952270507812	274.218017578125	16.88886260986328	762.1507568359375	344.0269165039062	-253.39306640625	1633.9033203125	281.4865417480469	-262.6878051757812	1694.319458007812	62.5240592956543	-170.7993316650391	1692.51904296875	102.1720352172852	-357.434814453125	1645.970336914062	187.9963226318359	-463.9051208496094	952.5935668945312	157.6594085693359	-132.9846343994141	977.0537109375	319.1939086914062	-129.2688751220703	1023.598693847656	218.89404296875	-377.4512023925781	998.6673583984375	87.43054962158203	-420.731689453125	474.2888488769531	210.4127655029297	-439.2125244140625	616.3279418945312	176.4508972167969	-546.9544067382812	85.88721466064453	485.7393798828125	-490.5056457519531	290.0234680175781	341.0255737304688	-385.6223449707031	40.57241439819336	352.5875854492188	-387.9942626953125	46.92329406738281	430.4023132324219	-491.2981567382812	41.9697151184082	379.9371643066406	-537.421630859375	121.7074508666992	559.136962890625	-70.04634857177734	528.9029541015625	111.646598815918	-72.88451385498047	778.187255859375	210.5976715087891	-65.80274200439453	32.68528747558594	123.3317260742188	-67.72878265380859	408.5253295898438	77.17652130126953	-45.90579605102539	43.24256896972656	-92.39459991455078	-103.0512542724609	41.89152145385742	-50.93590545654297	-9.290655136108398	31.36363220214844	26.2883186340332	-141.2148742675781	35.34371566772461	163.9987487792969	
211	2.1	-264.6838073730469	1007.63525390625	359.5060729980469	-371.5632019042969	1011.788513183594	303.7215881347656	-342.7196350097656	1094.667846679688	327.0291748046875	-227.5052490234375	1289.74755859375	107.960319519043	-345.3048706054688	1219.973266601562	330.75634765625	-322.5598754882812	1484.240234375	283.1294555664062	-238.1796875	1406.41259765625	135.0578765869141	-296.0652770996094	1340.375	377.9277954101562	-429.0763244628906	1446.864135742188	244.8031005859375	-434.0748291015625	1452.274780273438	140.1899566650391	-519.643798828125	1334.291015625	127.5257263183594	-540.6934814453125	1126.104125976562	103.9829483032227	-526.8795166015625	1105.244873046875	188.88916015625	-429.5212097167969	908.9500122070312	24.748046875	-509.4947814941406	891.6751098632812	3.236721277236938	-535.8722534179688	1022.94287109375	67.15241241455078	-425.8536376953125	717.7667846679688	-10.92169570922852	-492.6593017578125	806.8705444335938	-22.17113494873047	-425.26220703125	815.6668090820312	-29.33943367004395	-148.0340423583984	1444.8681640625	315.6352233886719	-101.0988998413086	1379.200805664062	364.5505676269531	-69.23321533203125	1101.719360351562	403.1304321289062	-161.5352020263672	1092.493530273438	382.0868835449219	-27.33403396606445	879.3910522460938	275.4205017089844	1.747739791870117	873.7033081054688	353.828369140625	-42.04731369018555	1034.125366210938	389.0323181152344	-37.07530212402344	690.84033203125	291.2351684570312	5.799753189086914	753.6690673828125	264.8714904785156	23.17661476135254	763.0293579101562	334.5273132324219	-247.1686859130859	1635.368774414062	275.7732238769531	-257.7612915039062	1696.134399414062	56.97269058227539	-165.6334075927734	1694.315063476562	96.08342742919922	-351.8195190429688	1647.5302734375	182.8958435058594	-458.09375	953.4534912109375	151.6367492675781	-125.7061920166016	979.0176391601562	310.5475158691406	-122.9328765869141	1025.526977539062	210.27880859375	-372.1856994628906	999.8002319335938	80.94055938720703	-415.1241149902344	474.4329528808594	200.2652893066406	-433.4878540039062	616.7650146484375	167.9874877929688	-544.7337036132812	92.07585144042969	483.3020629882812	-486.2975769042969	293.2601013183594	334.3568420410156	-385.5718688964844	40.49358749389648	352.5562744140625	-387.1439514160156	48.08015823364258	429.3963012695312	-490.3453369140625	42.9055061340332	379.1913452148438	-533.7239379882812	130.2616119384766	555.1691284179688	-66.23446655273438	528.6045532226562	106.4799194335938	-66.76520538330078	779.0394287109375	202.8531951904297	-65.65516662597656	32.75844192504883	123.2069396972656	-64.96941375732422	407.9283752441406	73.26160430908203	-46.03945159912109	42.11822128295898	-92.84870910644531	-103.0004348754883	41.24642562866211	-51.25917053222656	-9.037328720092773	31.40491676330566	26.30475044250488	-141.0263214111328	35.44828033447266	163.9100341796875	
212	2.11	-257.5428466796875	1009.397583007812	352.0879211425781	-364.6450500488281	1013.251647949219	297.1531982421875	-335.7394714355469	1096.05859375	320.3002319335938	-222.5142517089844	1291.792114257812	100.9438629150391	-338.6181335449219	1221.262329101562	324.3343811035156	-316.1536865234375	1485.646484375	277.61474609375	-233.0074157714844	1408.337890625	128.5916442871094	-288.9072570800781	1341.387573242188	371.6936340332031	-422.86181640625	1448.46630859375	240.0471038818359	-428.9011535644531	1454.253051757812	135.4273376464844	-514.7077026367188	1336.263061523438	123.8102416992188	-536.6005249023438	1127.962646484375	101.9326629638672	-520.9839477539062	1107.639038085938	186.6702880859375	-429.6798400878906	908.5965576171875	22.43066787719727	-510.6448364257812	891.5957641601562	3.856966495513916	-533.8095703125	1024.190185546875	66.35000610351562	-428.9408569335938	716.7229614257812	-10.00205135345459	-495.3329162597656	806.2150268554688	-20.57439041137695	-428.1687316894531	814.2810668945312	-30.05288314819336	-141.4164733886719	1446.15283203125	308.6477966308594	-94.12422180175781	1380.364990234375	357.0177917480469	-62.08818435668945	1102.776000976562	394.5567016601562	-154.5231170654297	1093.629272460938	374.2044067382812	-21.31351470947266	880.602294921875	266.1804809570312	8.392009735107422	874.822998046875	344.3465881347656	-35.03776931762695	1035.219970703125	380.1288757324219	-31.13732719421387	692.0684204101562	282.0230712890625	11.51328182220459	754.8114013671875	255.3032531738281	29.52043151855469	764.1277465820312	324.8110046386719	-240.9817810058594	1636.943115234375	270.0361328125	-252.8542785644531	1698.073852539062	51.41432571411133	-160.4859313964844	1696.2041015625	89.98342895507812	-346.2341918945312	1649.225708007812	177.7748413085938	-452.35791015625	954.4474487304688	145.8655395507812	-118.4671096801758	981.1334838867188	301.9313049316406	-116.713981628418	1027.489868164062	201.7290496826172	-367.0357666015625	1001.056823730469	74.59794616699219	-409.599853515625	474.5834350585938	189.4069213867188	-427.8528442382812	617.263427734375	159.1278686523438	-542.0306396484375	98.78287506103516	480.5728454589844	-481.8538208007812	296.7107543945312	327.12060546875	-385.4857482910156	40.35141372680664	352.5065307617188	-386.0886840820312	49.36082077026367	428.2291870117188	-489.3006591796875	44.10417938232422	378.3800964355469	-529.3381958007812	139.3924560546875	550.64501953125	-62.65008163452148	528.2505493164062	102.1209411621094	-60.77461624145508	779.8250122070312	195.6138153076172	-65.552978515625	32.74664306640625	123.1573944091797	-62.34839630126953	407.3316650390625	70.08152770996094	-46.16653060913086	41.51340484619141	-93.06756591796875	-102.9958953857422	40.92845153808594	-51.44230651855469	-8.865478515625	31.45332336425781	26.35071182250977	-140.8802642822266	35.46539688110352	163.9031524658203	
213	2.12	-250.4946899414062	1011.266052246094	344.6742553710938	-357.8224487304688	1014.860168457031	290.7491760253906	-328.7962036132812	1097.6162109375	313.6861267089844	-217.6555328369141	1293.904541015625	93.91628265380859	-331.9909362792969	1222.688842773438	317.9123840332031	-309.7901916503906	1487.129516601562	272.0692749023438	-227.9482269287109	1410.3359375	122.1006851196289	-281.7325134277344	1342.519165039062	365.4590148925781	-416.6706237792969	1450.18017578125	235.3277435302734	-423.7852172851562	1456.348388671875	130.7090911865234	-509.8465270996094	1338.409912109375	120.1528854370117	-532.5855712890625	1130.032470703125	99.77526092529297	-515.3329467773438	1110.201049804688	184.3155975341797	-429.7949829101562	908.5921630859375	20.11321640014648	-511.6910705566406	891.8553466796875	4.445899486541748	-531.77392578125	1025.712036132812	65.44712829589844	-431.7461853027344	716.0910034179688	-8.892213821411133	-497.7583618164062	805.9251708984375	-18.90031242370605	-430.90234375	813.2645263671875	-30.62057495117188	-134.84619140625	1447.549682617188	301.5851135253906	-87.18297576904297	1381.666137695312	349.4153747558594	-54.95265579223633	1103.979370117188	385.9602661132812	-147.5139007568359	1094.920654296875	366.2897033691406	-15.26124954223633	882.0382080078125	256.8000183105469	15.06331920623779	876.1134643554688	334.7271118164062	-28.00934982299805	1036.459594726562	371.1842346191406	-25.13605117797852	693.5042724609375	272.50244140625	17.29268264770508	756.1986083984375	245.5047454833984	35.92435455322266	765.420654296875	314.8713073730469	-234.8463745117188	1638.586303710938	264.2744445800781	-247.9768676757812	1700.097045898438	45.84447479248047	-155.3697967529297	1698.144775390625	83.86989593505859	-340.6839599609375	1651.020263671875	172.6334228515625	-446.7108459472656	955.5205078125	140.3865814208984	-111.309196472168	983.372802734375	293.3848571777344	-110.6250686645508	1029.462768554688	193.2797088623047	-362.0040893554688	1002.407958984375	68.42462921142578	-404.1988220214844	474.7283630371094	177.8965911865234	-422.3337097167969	617.8021240234375	149.90283203125	-538.7997436523438	106.0116119384766	477.5182189941406	-477.1671142578125	300.3443908691406	319.3182373046875	-385.3153991699219	40.10313034057617	352.3158569335938	-384.7774658203125	50.82942581176758	426.8073425292969	-488.1362609863281	45.66170883178711	377.4783325195312	-524.2347412109375	149.0361938476562	545.5548095703125	-59.2772102355957	527.88916015625	98.47145843505859	-54.97524642944336	780.6002197265625	188.8076782226562	-65.47478485107422	32.65933227539062	123.1648635864258	-59.85808181762695	406.7635498046875	67.54534912109375	-46.27872085571289	41.26468658447266	-93.11348724365234	-103.0146942138672	40.83420562744141	-51.51504135131836	-8.739053726196289	31.4749641418457	26.40808486938477	-140.7528991699219	35.42451858520508	163.962646484375	
